#Comment line ignore any data following # character 
#Hierarchical Translation and Rotation (.htr) file 
[Header]	
#Header keywords are followed by a single value 
FileType HTR		#Single word string
DataType HTRS		#Translation followed by rotation and scale data
FileVersion 1		#integer
NumSegments 84		#integer
NumFrames 2		#integer
DataFrameRate 30		#integer, data frame rate in this file
EulerRotationOrder ZYX
CalibrationUnits mm
RotationUnits Degrees
GlobalAxisofGravity Y
BoneLengthAxis Y
ScaleFactor 1.00
[SegmentNames&Hierarchy]
#CHILD	PARENT
MASTER GLOBAL
root MASTER
chest root
L_mid_tent01 root
R_mid_tent01 root
spine01 root
Bip01_Neck chest
L_humerus chest
R_humerus chest
weapon_bone chest
Bip01_Head Bip01_Neck
eye_left_bone Bip01_Head
eye_right_bone Bip01_Head
L_forearm L_humerus
L_front_hand L_forearm
L_weapon_bone L_forearm
L_front_hand01_01 L_front_hand
L_front_hand02_01 L_front_hand
L_front_hand03_01 L_front_hand
L_front_hand01_02 L_front_hand01_01
L_front_hand02_02 L_front_hand02_01
L_front_hand03_02 L_front_hand03_01
R_forearm R_humerus
R_front_hand R_forearm
R_weapon_bone R_forearm
R_front_hand01_01 R_front_hand
R_front_hand02_01 R_front_hand
R_front_hand03_01 R_front_hand
R_front_hand01_02 R_front_hand01_01
R_front_hand02_02 R_front_hand02_01
R_front_hand03_02 R_front_hand03_01
null_rope01_connect L_mid_tent01
Rope1_Seg01 null_rope01_connect
Rope1_Seg02 Rope1_Seg01
Rope1_Seg03 Rope1_Seg02
Rope1_Seg04 Rope1_Seg03
Rope1_Seg05 Rope1_Seg04
Rope1_Seg06 Rope1_Seg05
Rope1_Seg07 Rope1_Seg06
Rope1_Seg09 Rope1_Seg07
L_mid_hand01 Rope1_Seg09
L_mid_hand02 Rope1_Seg09
L_mid_hand03 Rope1_Seg09
null_rope02_connect R_mid_tent01
Rope2_Seg01 null_rope02_connect
Rope2_Seg02 Rope2_Seg01
Rope2_Seg03 Rope2_Seg02
Rope2_Seg04 Rope2_Seg03
Rope2_Seg05 Rope2_Seg04
Rope2_Seg06 Rope2_Seg05
Rope2_Seg07 Rope2_Seg06
Rope2_Seg09 Rope2_Seg07
R_mid_hand01 Rope2_Seg09
R_mid_hand02 Rope2_Seg09
R_mid_hand03 Rope2_Seg09
spine02 spine01
spine03 spine02
pelvis spine03
null_rope03_connect pelvis
null_rope04_connect pelvis
Rope3_Seg01 null_rope03_connect
Rope3_Seg02 Rope3_Seg01
Rope3_Seg03 Rope3_Seg02
Rope3_Seg04 Rope3_Seg03
Rope3_Seg05 Rope3_Seg04
Rope3_Seg06 Rope3_Seg05
Rope3_Seg07 Rope3_Seg06
Rope3_Seg08 Rope3_Seg07
Rope3_Seg09 Rope3_Seg08
R_rear_hand01 Rope3_Seg09
R_rear_hand02 Rope3_Seg09
R_rear_hand03 Rope3_Seg09
Rope4_Seg01 null_rope04_connect
Rope4_Seg02 Rope4_Seg01
Rope4_Seg03 Rope4_Seg02
Rope4_Seg04 Rope4_Seg03
Rope4_Seg05 Rope4_Seg04
Rope4_Seg06 Rope4_Seg05
Rope4_Seg07 Rope4_Seg06
Rope4_Seg08 Rope4_Seg07
Rope4_Seg09 Rope4_Seg08
L_rear_hand01 Rope4_Seg09
L_rear_hand02 Rope4_Seg09
L_rear_hand03 Rope4_Seg09
[BasePosition]
#SegmentName Tx, Ty, Tz, Rx, Ry, Rz, BoneLength
MASTER 0.000000 0.000000 0.000000 -90.000000 0.000000 0.000000 10.000000 
root 0.000000 0.000000 0.000000 0.000000 0.000000 0.000000 10.000000 
chest 0.000000 0.000000 0.000000 0.000000 0.000000 0.000000 10.000000 
L_mid_tent01 0.000000 0.000000 0.000000 0.000000 0.000000 0.000000 10.000000 
R_mid_tent01 0.000000 0.000000 0.000000 0.000000 0.000000 0.000000 10.000000 
spine01 0.000000 0.000000 0.000000 0.000000 0.000000 0.000000 10.000000 
Bip01_Neck 0.000000 0.000000 0.000000 0.000000 0.000000 0.000000 10.000000 
L_humerus 0.000000 0.000000 0.000000 0.000000 0.000000 0.000000 10.000000 
R_humerus 0.000000 0.000000 0.000000 0.000000 0.000000 0.000000 10.000000 
weapon_bone 0.000000 0.000000 0.000000 0.000000 0.000000 0.000000 10.000000 
Bip01_Head 0.000000 0.000000 0.000000 0.000000 0.000000 0.000000 10.000000 
eye_left_bone 0.000000 0.000000 0.000000 0.000000 0.000000 0.000000 10.000000 
eye_right_bone 0.000000 0.000000 0.000000 0.000000 0.000000 0.000000 10.000000 
L_forearm 0.000000 0.000000 0.000000 0.000000 0.000000 0.000000 10.000000 
L_front_hand 0.000000 0.000000 0.000000 0.000000 0.000000 0.000000 10.000000 
L_weapon_bone 0.000000 0.000000 0.000000 0.000000 0.000000 0.000000 10.000000 
L_front_hand01_01 0.000000 0.000000 0.000000 0.000000 0.000000 0.000000 10.000000 
L_front_hand02_01 0.000000 0.000000 0.000000 0.000000 0.000000 0.000000 10.000000 
L_front_hand03_01 0.000000 0.000000 0.000000 0.000000 0.000000 0.000000 10.000000 
L_front_hand01_02 0.000000 0.000000 0.000000 0.000000 0.000000 0.000000 10.000000 
L_front_hand02_02 0.000000 0.000000 0.000000 0.000000 0.000000 0.000000 10.000000 
L_front_hand03_02 0.000000 0.000000 0.000000 0.000000 0.000000 0.000000 10.000000 
R_forearm 0.000000 0.000000 0.000000 0.000000 0.000000 0.000000 10.000000 
R_front_hand 0.000000 0.000000 0.000000 0.000000 0.000000 0.000000 10.000000 
R_weapon_bone 0.000000 0.000000 0.000000 0.000000 0.000000 0.000000 10.000000 
R_front_hand01_01 0.000000 0.000000 0.000000 0.000000 0.000000 0.000000 10.000000 
R_front_hand02_01 0.000000 0.000000 0.000000 0.000000 0.000000 0.000000 10.000000 
R_front_hand03_01 0.000000 0.000000 0.000000 0.000000 0.000000 0.000000 10.000000 
R_front_hand01_02 0.000000 0.000000 0.000000 0.000000 0.000000 0.000000 10.000000 
R_front_hand02_02 0.000000 0.000000 0.000000 0.000000 0.000000 0.000000 10.000000 
R_front_hand03_02 0.000000 0.000000 0.000000 0.000000 0.000000 0.000000 10.000000 
null_rope01_connect 0.000000 0.000000 0.000000 0.000000 0.000000 0.000000 10.000000 
Rope1_Seg01 0.000000 0.000000 0.000000 0.000000 0.000000 0.000000 10.000000 
Rope1_Seg02 0.000000 0.000000 0.000000 0.000000 0.000000 0.000000 10.000000 
Rope1_Seg03 0.000000 0.000000 0.000000 0.000000 0.000000 0.000000 10.000000 
Rope1_Seg04 0.000000 0.000000 0.000000 0.000000 0.000000 0.000000 10.000000 
Rope1_Seg05 0.000000 0.000000 0.000000 0.000000 0.000000 0.000000 10.000000 
Rope1_Seg06 0.000000 0.000000 0.000000 0.000000 0.000000 0.000000 10.000000 
Rope1_Seg07 0.000000 0.000000 0.000000 0.000000 0.000000 0.000000 10.000000 
Rope1_Seg09 0.000000 0.000000 0.000000 0.000000 0.000000 0.000000 10.000000 
L_mid_hand01 0.000000 0.000000 0.000000 0.000000 0.000000 0.000000 10.000000 
L_mid_hand02 0.000000 0.000000 0.000000 0.000000 0.000000 0.000000 10.000000 
L_mid_hand03 0.000000 0.000000 0.000000 0.000000 0.000000 0.000000 10.000000 
null_rope02_connect 0.000000 0.000000 0.000000 0.000000 0.000000 0.000000 10.000000 
Rope2_Seg01 0.000000 0.000000 0.000000 0.000000 0.000000 0.000000 10.000000 
Rope2_Seg02 0.000000 0.000000 0.000000 0.000000 0.000000 0.000000 10.000000 
Rope2_Seg03 0.000000 0.000000 0.000000 0.000000 0.000000 0.000000 10.000000 
Rope2_Seg04 0.000000 0.000000 0.000000 0.000000 0.000000 0.000000 10.000000 
Rope2_Seg05 0.000000 0.000000 0.000000 0.000000 0.000000 0.000000 10.000000 
Rope2_Seg06 0.000000 0.000000 0.000000 0.000000 0.000000 0.000000 10.000000 
Rope2_Seg07 0.000000 0.000000 0.000000 0.000000 0.000000 0.000000 10.000000 
Rope2_Seg09 0.000000 0.000000 0.000000 0.000000 0.000000 0.000000 10.000000 
R_mid_hand01 0.000000 0.000000 0.000000 0.000000 0.000000 0.000000 10.000000 
R_mid_hand02 0.000000 0.000000 0.000000 0.000000 0.000000 0.000000 10.000000 
R_mid_hand03 0.000000 0.000000 0.000000 0.000000 0.000000 0.000000 10.000000 
spine02 0.000000 0.000000 0.000000 0.000000 0.000000 0.000000 10.000000 
spine03 0.000000 0.000000 0.000000 0.000000 0.000000 0.000000 10.000000 
pelvis 0.000000 0.000000 0.000000 0.000000 0.000000 0.000000 10.000000 
null_rope03_connect 0.000000 0.000000 0.000000 0.000000 0.000000 0.000000 10.000000 
null_rope04_connect 0.000000 0.000000 0.000000 0.000000 0.000000 0.000000 10.000000 
Rope3_Seg01 0.000000 0.000000 0.000000 0.000000 0.000000 0.000000 10.000000 
Rope3_Seg02 0.000000 0.000000 0.000000 0.000000 0.000000 0.000000 10.000000 
Rope3_Seg03 0.000000 0.000000 0.000000 0.000000 0.000000 0.000000 10.000000 
Rope3_Seg04 0.000000 0.000000 0.000000 0.000000 0.000000 0.000000 10.000000 
Rope3_Seg05 0.000000 0.000000 0.000000 0.000000 0.000000 0.000000 10.000000 
Rope3_Seg06 0.000000 0.000000 0.000000 0.000000 0.000000 0.000000 10.000000 
Rope3_Seg07 0.000000 0.000000 0.000000 0.000000 0.000000 0.000000 10.000000 
Rope3_Seg08 0.000000 0.000000 0.000000 0.000000 0.000000 0.000000 10.000000 
Rope3_Seg09 0.000000 0.000000 0.000000 0.000000 0.000000 0.000000 10.000000 
R_rear_hand01 0.000000 0.000000 0.000000 0.000000 0.000000 0.000000 10.000000 
R_rear_hand02 0.000000 0.000000 0.000000 0.000000 0.000000 0.000000 10.000000 
R_rear_hand03 0.000000 0.000000 0.000000 0.000000 0.000000 0.000000 10.000000 
Rope4_Seg01 0.000000 0.000000 0.000000 0.000000 0.000000 0.000000 10.000000 
Rope4_Seg02 0.000000 0.000000 0.000000 0.000000 0.000000 0.000000 10.000000 
Rope4_Seg03 0.000000 0.000000 0.000000 0.000000 0.000000 0.000000 10.000000 
Rope4_Seg04 0.000000 0.000000 0.000000 0.000000 0.000000 0.000000 10.000000 
Rope4_Seg05 0.000000 0.000000 0.000000 0.000000 0.000000 0.000000 10.000000 
Rope4_Seg06 0.000000 0.000000 0.000000 0.000000 0.000000 0.000000 10.000000 
Rope4_Seg07 0.000000 0.000000 0.000000 0.000000 0.000000 0.000000 10.000000 
Rope4_Seg08 0.000000 0.000000 0.000000 0.000000 0.000000 0.000000 10.000000 
Rope4_Seg09 0.000000 0.000000 0.000000 0.000000 0.000000 0.000000 10.000000 
L_rear_hand01 0.000000 0.000000 0.000000 0.000000 0.000000 0.000000 10.000000 
L_rear_hand02 0.000000 0.000000 0.000000 0.000000 0.000000 0.000000 10.000000 
L_rear_hand03 0.000000 0.000000 0.000000 0.000000 0.000000 0.000000 10.000000 
#Beginning of Data. Separated by tabs
#Fr	Tx	Ty	Tz	Rx	Ry	Rz	SF
[MASTER]
28 -0.000961 5679.739258 -78.024216 0.001660 0.001660 0.001660 5680.275391
29 -0.000923 5793.269531 -57.192009 0.001660 0.001660 0.001660 5793.551758
[root]
28 -16.502153 -26.731062 1473.797974 -91.679031 -19.629328 -89.651733 1474.132568
29 -16.502129 -9.354095 1461.477051 -91.703377 -15.754844 -89.555405 1461.600098
[chest]
28 -84.512650 -34.090519 0.000000 -2.094949 0.343917 173.161774 91.129311
29 -84.512650 -34.090519 0.000000 -2.122928 0.220358 171.384094 91.129311
[L_mid_tent01]
28 27.299171 22.179262 -249.918732 -20.661396 12.026044 12.983024 252.381729
29 27.299173 22.179266 -249.918732 -20.661390 12.026041 12.983019 252.381729
[R_mid_tent01]
28 23.228794 24.509907 226.238495 -165.192200 -17.956036 24.056787 228.744751
29 23.228794 24.509907 226.238495 -165.192200 -17.956036 24.056787 228.744751
[spine01]
28 -0.361383 -0.195265 0.000000 0.001964 0.001286 23.555342 0.410763
29 -0.361383 -0.195265 0.000000 0.001958 0.001295 23.025129 0.410763
[Bip01_Neck]
28 165.484543 71.581718 0.000119 176.643677 -1.657967 43.431911 180.302734
29 165.484543 71.581718 0.000119 176.643677 -1.657967 43.431911 180.302734
[L_humerus]
28 -13.983130 -135.272980 -120.471481 -5.599058 68.559128 84.443176 181.680161
29 -13.983130 -135.272980 -120.471481 -5.540572 68.726784 84.505257 181.680161
[R_humerus]
28 -13.983309 -135.273102 125.287651 27.708055 -69.568420 67.946465 184.909012
29 -13.983309 -135.273102 125.287651 27.806885 -69.739456 67.845467 184.909012
[weapon_bone]
28 235.964890 -300.705902 0.000000 0.000000 -89.951546 -128.212341 382.234833
29 235.964890 -300.705902 0.000000 0.000000 -89.951546 -128.212341 382.234833
[Bip01_Head]
28 213.326553 186.042450 7.559204 5.200446 6.151311 -43.834991 283.155701
29 213.326508 186.042450 7.559204 5.200446 6.151311 -43.834991 283.155670
[eye_left_bone]
28 -24.626970 125.451866 -64.772606 0.000000 -90.000000 -99.840431 143.318359
29 -24.626970 125.451866 -64.772606 0.000000 -90.000000 -99.840431 143.318359
[eye_right_bone]
28 -24.626970 125.451866 64.327362 0.000000 -89.965736 80.156380 143.117676
29 -24.626970 125.451866 64.327362 0.000000 -89.965736 80.156380 143.117676
[L_forearm]
28 322.776093 0.000000 -0.000119 0.000398 -0.002313 -109.522942 322.776093
29 322.776093 0.000000 -0.000119 0.000397 -0.002313 -109.477524 322.776093
[L_front_hand]
28 241.149185 -0.042021 -3.300071 -178.667953 -1.835447 -27.422350 241.171753
29 241.149185 -0.042021 -3.300071 -178.667953 -1.835447 -27.422350 241.171753
[L_weapon_bone]
28 156.183838 0.000000 0.000000 0.000014 0.000007 0.000001 156.183838
29 156.183838 0.000000 0.000000 0.000014 0.000007 0.000001 156.183838
[L_front_hand01_01]
28 86.095154 20.947098 -0.655860 -0.351864 -0.488251 73.756920 88.609184
29 86.095154 20.947098 -0.655860 -0.358124 -0.483585 74.301994 88.609184
[L_front_hand02_01]
28 86.935165 -11.437475 24.513514 151.937759 -59.151085 -58.507710 91.046425
29 86.935165 -11.437475 24.513514 152.741364 -59.405804 -59.444748 91.046425
[L_front_hand03_01]
28 86.637497 -14.123976 -20.424902 -151.626480 57.374596 -59.999687 90.126129
29 86.637497 -14.123976 -20.424902 -152.381134 57.628067 -60.890842 90.126129
[L_front_hand01_02]
28 71.020905 -0.000179 0.000030 0.000325 -0.002325 -105.893082 71.020905
29 71.020905 -0.000179 0.000030 0.000326 -0.002325 -105.948112 71.020905
[L_front_hand02_02]
28 71.020927 -0.000119 0.000060 0.000325 -0.002325 -105.893082 71.020927
29 71.020927 -0.000119 0.000060 0.000326 -0.002325 -105.948112 71.020927
[L_front_hand03_02]
28 71.020905 -0.000060 0.000060 0.000325 -0.002325 -105.893082 71.020905
29 71.020905 -0.000060 0.000060 0.000326 -0.002325 -105.948112 71.020905
[R_forearm]
28 322.776428 -0.000060 0.000030 0.202040 0.065351 -108.172760 322.776428
29 322.776428 -0.000060 0.000030 0.202068 0.065265 -108.123901 322.776428
[R_front_hand]
28 238.847015 -0.006795 2.210259 -2.635298 -10.645461 -26.312506 238.857239
29 238.847015 -0.006795 2.210259 -2.635298 -10.645461 -26.312506 238.857239
[R_weapon_bone]
28 155.664093 0.002503 -0.000030 0.003487 0.001180 -90.988930 155.664078
29 155.664093 0.002503 -0.000030 0.003487 0.001180 -90.988930 155.664078
[R_front_hand01_01]
28 87.624611 14.231146 22.918642 -154.633499 -59.950619 61.746044 91.683487
29 87.624611 14.231146 22.918642 -154.633514 -59.950626 61.746063 91.683487
[R_front_hand02_01]
28 89.356956 14.367283 -19.491137 154.602661 58.302849 63.744389 92.579636
29 89.356956 14.367283 -19.491137 154.602661 58.302864 63.744389 92.579636
[R_front_hand03_01]
28 87.286232 -22.307278 -0.143439 0.162155 -0.423168 -75.767921 90.091743
29 87.286232 -22.307278 -0.143439 0.162155 -0.423168 -75.767921 90.091743
[R_front_hand01_02]
28 71.020905 0.000060 0.000119 0.002323 -0.000334 106.381714 71.020905
29 71.020905 0.000060 0.000119 0.002323 -0.000334 106.381714 71.020905
[R_front_hand02_02]
28 71.020844 -0.000030 -0.000119 0.002323 -0.000334 106.381714 71.020836
29 71.020844 -0.000030 -0.000119 0.002323 -0.000334 106.381714 71.020836
[R_front_hand03_02]
28 71.020905 0.000000 0.000030 0.002323 -0.000334 106.381714 71.020905
29 71.020905 0.000000 0.000030 0.002323 -0.000334 106.381714 71.020905
[null_rope01_connect]
28 328.732483 0.000000 -0.000238 -146.013184 -64.808319 -119.377785 328.732483
29 328.732483 0.000000 -0.000238 -150.110245 -64.811272 -119.132965 328.732483
[Rope1_Seg01]
28 -0.000034 0.000004 0.000137 52.803391 -1.338695 -122.249008 0.000142
29 -0.000036 0.000003 0.000142 54.334332 1.312353 -122.705292 0.000147
[Rope1_Seg02]
28 139.999863 -0.000179 0.000000 -11.218084 4.096022 3.861751 139.999863
29 139.999863 -0.000179 0.000000 -13.441468 4.615457 3.669836 139.999863
[Rope1_Seg03]
28 139.999924 0.000060 -0.000060 -10.409581 3.410625 4.571293 139.999924
29 139.999924 0.000060 -0.000060 -12.833379 3.929584 4.625633 139.999924
[Rope1_Seg04]
28 139.999924 -0.000060 -0.000119 -10.218455 2.912121 6.017709 139.999924
29 139.999924 -0.000060 -0.000119 -12.249867 3.176758 6.322290 139.999924
[Rope1_Seg05]
28 139.999832 0.000119 -0.000060 -5.744075 0.529028 5.369795 139.999832
29 139.999832 0.000119 -0.000060 -5.196611 -0.381081 5.323162 139.999832
[Rope1_Seg06]
28 139.999954 0.000119 -0.000060 -2.073461 -0.107427 2.447362 139.999954
29 139.999954 0.000119 -0.000060 -1.642786 -0.583061 2.349764 139.999954
[Rope1_Seg07]
28 139.999985 0.000060 0.000000 -1.255155 -0.036097 1.520514 139.999985
29 139.999985 0.000060 0.000000 -1.114439 -0.245979 1.492821 139.999985
[Rope1_Seg09]
28 121.602913 0.000119 -0.000089 -89.793175 -1.359789 0.847147 121.602913
29 121.602913 0.000119 -0.000089 -89.793175 -1.359789 0.847147 121.602913
[L_mid_hand01]
28 103.859421 1.038730 8.195221 130.544373 -67.584534 -38.866943 104.187431
29 103.859421 1.038730 8.195221 130.544373 -67.584534 -38.866943 104.187431
[L_mid_hand02]
28 105.572853 -4.139662 -10.864139 -168.923172 43.409309 -73.498886 106.211075
29 105.572853 -4.139662 -10.864139 -168.923172 43.409309 -73.498886 106.211075
[L_mid_hand03]
28 104.641464 17.579376 -3.913581 -6.012627 17.808174 74.893669 106.179977
29 104.641464 17.579376 -3.913581 -6.012627 17.808174 74.893669 106.179977
[null_rope02_connect]
28 328.732849 0.000179 -0.000119 -132.645172 68.140327 -35.677929 328.732849
29 328.732849 0.000179 -0.000119 -136.276855 68.104446 -35.411049 328.732849
[Rope2_Seg01]
28 0.000072 0.000015 0.000000 32.282463 6.309073 -44.426662 0.000074
29 0.000074 0.000010 0.000000 28.581194 9.264750 -43.337093 0.000074
[Rope2_Seg02]
28 139.999741 -0.000060 -0.000119 26.117121 -12.176173 -6.038459 139.999756
29 139.999741 -0.000060 -0.000119 33.680759 -11.827322 -7.360178 139.999756
[Rope2_Seg03]
28 140.000107 0.000030 0.000000 2.521925 -9.663620 2.489402 140.000107
29 140.000107 0.000030 0.000000 2.118595 -9.772723 2.943631 140.000107
[Rope2_Seg04]
28 139.999802 0.000000 -0.000060 6.378995 -9.531143 -1.504902 139.999802
29 139.999802 0.000000 -0.000060 6.949500 -9.889802 -1.415947 139.999802
[Rope2_Seg05]
28 139.999985 -0.000060 0.000119 8.830243 -8.823775 -5.792045 139.999985
29 139.999985 -0.000060 0.000119 9.334986 -9.261773 -5.576532 139.999985
[Rope2_Seg06]
28 139.999893 -0.000030 -0.000119 3.247183 -4.983074 -2.095937 139.999893
29 139.999893 -0.000030 -0.000119 3.252801 -5.119037 -1.832681 139.999893
[Rope2_Seg07]
28 139.999893 0.000060 -0.000060 1.382641 -2.929533 -0.798117 139.999893
29 139.999893 0.000060 -0.000060 1.374507 -2.998038 -0.657729 139.999893
[Rope2_Seg09]
28 121.338966 0.000089 -0.000060 33.793236 -1.359788 -0.847141 121.338966
29 121.338966 0.000089 -0.000060 33.793236 -1.359788 -0.847141 121.338966
[R_mid_hand01]
28 104.680779 11.144459 -10.335981 -16.212063 45.237247 70.462852 105.778534
29 104.680779 11.144459 -10.335981 -16.212063 45.237247 70.462852 105.778534
[R_mid_hand02]
28 104.070427 2.443552 8.231699 49.067368 -67.749771 39.286453 104.424065
29 104.070427 2.443552 8.231699 49.067368 -67.749771 39.286453 104.424065
[R_mid_hand03]
28 106.028137 -11.221827 -5.996406 -177.101105 15.551026 -76.585571 106.788818
29 106.028137 -11.221827 -5.996406 -177.101105 15.551026 -76.585571 106.788818
[spine02]
28 129.756927 0.001550 0.000119 0.370266 -4.043762 -13.064837 129.756927
29 129.756927 0.001550 0.000119 0.362526 -4.044577 -12.984866 129.756927
[spine03]
28 78.613907 0.081497 -4.898990 1.902376 3.829234 16.575727 78.766441
29 78.613907 0.081492 -4.898989 1.898000 3.830542 16.518080 78.766441
[pelvis]
28 169.435242 0.051022 0.000000 -0.060771 -0.180122 14.282291 169.435257
29 169.435242 0.051022 0.000000 -0.060606 -0.180178 14.177626 169.435257
[null_rope03_connect]
28 -1.257226 -2.466202 137.391083 0.000000 -89.543716 68.309013 137.418976
29 -1.257226 -2.466202 137.391083 0.000000 -89.475861 65.036278 137.418976
[null_rope04_connect]
28 -1.259640 -2.480268 -137.844437 0.000000 -89.543716 68.309013 137.872513
29 -1.259640 -2.480268 -137.844437 0.000000 -89.475861 65.036278 137.872513
[Rope3_Seg01]
28 0.000010 0.000038 -0.000114 -132.210983 11.948185 -84.756119 0.000121
29 0.000010 0.000038 -0.000114 -132.890198 16.729729 -84.000427 0.000121
[Rope3_Seg02]
28 139.999924 -0.000119 0.000060 0.016418 -1.981671 -1.997079 139.999924
29 139.999924 -0.000119 0.000060 0.047298 -1.723876 -2.046906 139.999924
[Rope3_Seg03]
28 139.999924 -0.000119 0.000119 0.082716 -2.420585 -2.899216 139.999924
29 139.999924 -0.000119 0.000119 0.100867 -2.113307 -2.963501 139.999924
[Rope3_Seg04]
28 139.999924 0.000119 0.000000 0.097359 -3.051143 -4.056231 139.999924
29 139.999924 0.000119 0.000000 0.092274 -2.717168 -4.236193 139.999924
[Rope3_Seg05]
28 139.999924 -0.000238 0.000060 0.198360 1.879140 5.046883 139.999924
29 139.999924 -0.000238 0.000060 0.170711 1.657448 5.179622 139.999924
[Rope3_Seg06]
28 139.999893 -0.000119 -0.000060 0.434685 2.796726 6.164599 139.999893
29 139.999893 -0.000119 -0.000060 0.356592 2.517995 6.448812 139.999893
[Rope3_Seg07]
28 139.999771 0.000060 -0.000119 0.410118 1.139516 2.765851 139.999771
29 139.999771 0.000060 -0.000119 0.359157 1.026555 2.903491 139.999771
[Rope3_Seg08]
28 139.999985 -0.000060 0.000000 0.448244 0.736735 1.757911 139.999985
29 139.999985 -0.000060 0.000000 0.413149 0.667670 1.858828 139.999985
[Rope3_Seg09]
28 90.185997 -0.000179 -0.000060 89.793228 -1.359877 -0.847183 90.185997
29 90.185997 -0.000179 -0.000060 89.793228 -1.359877 -0.847183 90.185997
[R_rear_hand01]
28 103.366196 -6.073594 -10.757982 -177.714203 24.565960 -73.910950 104.101845
29 103.366196 -6.073594 -10.757982 -177.714203 24.565960 -73.910950 104.101845
[R_rear_hand02]
28 100.509819 12.039542 -7.992327 -12.874829 36.868488 72.167213 101.543350
29 100.509819 12.039542 -7.992327 -12.874829 36.868488 72.167213 101.543350
[R_rear_hand03]
28 101.539970 5.215704 5.435467 71.484581 -71.816628 21.513813 101.819031
29 101.539970 5.215704 5.435467 71.484581 -71.816628 21.513813 101.819031
[Rope4_Seg01]
28 0.000010 0.000038 -0.000114 46.582493 19.859079 -112.169373 0.000121
29 0.000010 0.000038 -0.000114 46.071701 24.140305 -112.905670 0.000121
[Rope4_Seg02]
28 139.999985 0.000060 0.000119 0.212358 1.508116 4.348192 139.999985
29 139.999985 0.000060 0.000119 0.173561 1.672962 4.313365 139.999985
[Rope4_Seg03]
28 139.999924 0.000000 -0.000238 0.008684 2.200522 6.292111 139.999924
29 139.999924 0.000000 -0.000238 -0.053034 2.441660 6.261362 139.999924
[Rope4_Seg04]
28 139.999985 0.000000 0.000119 -2.217606 5.222016 20.396009 139.999985
29 139.999985 0.000000 0.000119 -2.451449 6.184214 20.530310 139.999985
[Rope4_Seg05]
28 139.999802 -0.000060 -0.000119 1.344968 2.103332 -3.659695 139.999802
29 139.999802 -0.000060 -0.000119 1.404187 1.702638 -3.524750 139.999802
[Rope4_Seg06]
28 139.999924 0.000000 0.000060 4.061543 -1.789661 -18.924877 139.999924
29 139.999924 0.000000 0.000060 4.637447 -2.950045 -20.008179 139.999924
[Rope4_Seg07]
28 139.999802 0.000000 0.000000 0.643271 -0.519637 -5.022871 139.999802
29 139.999802 0.000000 0.000000 0.658445 -0.923366 -5.312527 139.999802
[Rope4_Seg08]
28 139.999924 0.000000 0.000119 -1.262350 -0.310536 -2.740214 139.999924
29 139.999924 0.000000 0.000119 -1.281224 -0.530267 -2.881211 139.999924
[Rope4_Seg09]
28 90.185791 0.000060 0.000060 -135.617828 2.228885 0.850567 90.185791
29 90.185791 0.000060 0.000060 -135.617828 2.228885 0.850567 90.185791
[L_rear_hand01]
28 101.696655 -8.392275 -7.654577 -12.874829 -36.868488 107.832764 102.329041
29 101.696655 -8.392275 -7.654577 -12.874829 -36.868488 107.832764 102.329041
[L_rear_hand02]
28 102.726799 -1.568258 5.773216 71.484581 71.816628 158.486160 102.900848
29 102.726799 -1.568258 5.773216 71.484581 71.816628 158.486160 102.900848
[L_rear_hand03]
28 104.552910 9.721220 -10.420293 -177.714203 -24.565960 -106.089035 105.519653
29 104.552910 9.721220 -10.420293 -177.714203 -24.565960 -106.089035 105.519653
